<mxfile host="app.diagrams.net" modified="2023-10-19T12:48:20.435Z" agent="Mozilla/5.0 (Windows NT 10.0; Win64; x64) AppleWebKit/537.36 (KHTML, like Gecko) Chrome/118.0.0.0 Safari/537.36 Edg/118.0.2088.46" etag="hE6fCLSARqtWgfLQDhcz" version="21.7.4" type="github">
  <diagram id="R2lEEEUBdFMjLlhIrx00" name="Page-1">
    <mxGraphModel dx="809" dy="817" grid="1" gridSize="10" guides="1" tooltips="1" connect="1" arrows="1" fold="1" page="1" pageScale="1" pageWidth="850" pageHeight="1100" math="0" shadow="0" extFonts="Permanent Marker^https://fonts.googleapis.com/css?family=Permanent+Marker">
      <root>
        <mxCell id="0" />
        <mxCell id="1" parent="0" />
        <mxCell id="haXXU8GnQuhnvWK0W3cd-3" value="Game" style="rounded=0;whiteSpace=wrap;html=1;" vertex="1" parent="1">
          <mxGeometry x="550" y="170" width="70" height="30" as="geometry" />
        </mxCell>
        <mxCell id="haXXU8GnQuhnvWK0W3cd-5" value="Customer" style="rounded=0;whiteSpace=wrap;html=1;" vertex="1" parent="1">
          <mxGeometry x="190" y="170" width="70" height="30" as="geometry" />
        </mxCell>
        <mxCell id="haXXU8GnQuhnvWK0W3cd-6" value="Cart" style="rounded=0;whiteSpace=wrap;html=1;" vertex="1" parent="1">
          <mxGeometry x="190" y="410" width="70" height="30" as="geometry" />
        </mxCell>
        <mxCell id="haXXU8GnQuhnvWK0W3cd-7" value="System" style="rounded=0;whiteSpace=wrap;html=1;" vertex="1" parent="1">
          <mxGeometry x="550" width="70" height="30" as="geometry" />
        </mxCell>
        <mxCell id="haXXU8GnQuhnvWK0W3cd-8" value="Library" style="rounded=0;whiteSpace=wrap;html=1;" vertex="1" parent="1">
          <mxGeometry x="550" y="410" width="70" height="30" as="geometry" />
        </mxCell>
        <mxCell id="haXXU8GnQuhnvWK0W3cd-9" value="Category" style="rounded=0;whiteSpace=wrap;html=1;" vertex="1" parent="1">
          <mxGeometry x="780" y="170" width="70" height="30" as="geometry" />
        </mxCell>
      </root>
    </mxGraphModel>
  </diagram>
</mxfile>
